<?xml version="1.0" encoding="UTF-8"?>
<svg version="1.1" xmlns="http://www.w3.org/2000/svg" width="4096" height="4096">
<path d="M0 0 C4.19483386 2.71152549 5.21693233 9.56840589 6.21704102 14.22052002 C6.36713623 14.9559906 6.51723145 15.69146118 6.671875 16.44921875 C6.8380835 17.23770203 7.00429199 18.0261853 7.17553711 18.83856201 C7.52515672 20.5052491 7.87120648 22.17268862 8.21386719 23.84082031 C8.72473676 26.32424068 9.2480738 28.80476679 9.7734375 31.28515625 C15.29036247 57.58284773 17.80251102 83.68755058 18.58954811 110.53537655 C18.65784713 112.70080692 18.72670968 114.86621957 18.79607618 117.031616 C18.9836279 122.93657006 19.16327237 128.8417412 19.34153646 134.74698194 C19.53742335 141.18836335 19.74082897 147.62950824 19.94325483 154.07068688 C20.29674493 165.3441852 20.64509185 176.61783542 20.99042702 187.8915863 C21.36067484 199.97781275 21.73375701 212.06394687 22.11024666 224.14998055 C22.13409174 224.91550628 22.15793681 225.68103201 22.18250447 226.46975549 C22.3041198 230.37369591 22.42578076 234.2776349 22.54745783 238.1815734 C23.42636351 266.38374524 24.2990788 294.58610589 25.1684761 322.78857231 C26.0290938 350.70564295 26.89238242 378.62262893 27.75922775 406.53950691 C27.7861784 407.40749528 27.81312904 408.27548365 27.84089637 409.1697747 C28.08706167 417.09787376 28.33325972 425.02597181 28.57949706 432.95406863 C29.19152999 452.65968836 29.80315226 472.36532082 30.41449547 492.07096195 C30.44233057 492.96817009 30.47016568 493.86537822 30.49884427 494.78977448 C31.85179906 538.40068231 33.20002149 582.01173627 34.54785156 625.62280273 C35.015399 640.75091685 35.48296739 655.87903032 35.95062256 671.00714111 C35.97962779 671.94542787 36.00863302 672.88371463 36.03851719 673.85043432 C37.3877166 717.49459579 38.74028463 761.13865268 40.09371792 804.78268304 C40.18161759 807.61717713 40.26951581 810.45167127 40.35741374 813.28616541 C40.93993551 832.07099926 41.52251525 850.85583131 42.10513381 869.64066216 C43.26433286 907.01566011 44.42319131 944.39066862 45.58181565 981.76568439 C45.63698847 983.54545435 45.69216153 985.3252243 45.74733482 987.10499424 C48.23011628 1067.19416428 50.70893624 1147.28345675 53.18603516 1227.37280273 C53.20922265 1228.12249806 53.23241015 1228.87219339 53.2563003 1229.64460676 C54.41590063 1267.1367616 55.57527466 1304.62892344 56.734375 1342.12109375 C58.47951389 1329.79647141 60.22409759 1317.4717706 61.96803022 1305.14697751 C62.778395 1299.42005077 63.58892976 1293.6931482 64.39989662 1287.96630669 C69.18424651 1254.17919167 73.90897262 1220.38480667 78.53710938 1186.57592773 C80.406115 1172.92381189 82.28304979 1159.27278371 84.15966892 1145.62171268 C84.47645628 1143.317179 84.79317607 1141.01263604 85.10988617 1138.70809174 C88.59353586 1113.36137826 92.09974887 1088.01782659 95.6171875 1062.67578125 C95.74205788 1061.77611964 95.86692825 1060.87645802 95.99558258 1059.94953394 C97.65142524 1048.02005179 99.30808362 1036.09068297 100.96492004 1024.16133881 C103.26128823 1007.62720438 105.55698016 991.09297611 107.8515625 974.55859375 C108.038717 973.21000345 108.038717 973.21000345 108.2296524 971.83416891 C111.82996671 945.88990475 115.41925597 919.94414348 118.9921875 893.99609375 C119.14904982 892.85690019 119.14904982 892.85690019 119.30908108 891.69469261 C121.35909755 876.80576796 123.40688915 861.91653793 125.45230389 847.0269804 C132.06305129 798.90490499 138.73470684 750.79132277 145.40877026 702.67799336 C146.93310055 691.68887171 148.45685696 680.69967051 149.98046875 669.71044922 C150.11114424 668.76794154 150.24181972 667.82543386 150.37645507 666.85436535 C151.03367323 662.11410597 151.69088037 657.37384506 152.34807968 652.63358307 C153.00858417 647.86949112 153.66911349 643.10540261 154.32965124 638.34131527 C165.20676029 559.89081685 176.0783688 481.43955919 186.93511081 402.98623931 C189.04975071 387.70548483 191.16554004 372.4248901 193.28250694 357.14445782 C194.89590624 345.49872332 196.50866945 333.85290078 198.12109375 322.20703125 C198.27965457 321.06186547 198.4382154 319.91669968 198.6015811 318.7368319 C203.0316945 286.73950216 207.4377591 254.73895972 211.81985092 222.73501861 C212.87628099 215.02053407 213.93440385 207.30628326 214.99371338 199.5921936 C215.14066021 198.5220661 215.28760704 197.4519386 215.43900681 196.349383 C216.02501914 192.08212276 216.61109544 187.81487135 217.197402 183.54765153 C218.73547708 172.35322118 220.27053943 161.15840381 221.79400635 149.9619751 C232.23268848 73.26135604 232.23268848 73.26135604 238.51961803 41.46165085 C239.70041655 35.44875081 240.713055 29.4128202 241.65752506 23.35844803 C244.73262681 4.12284194 244.73262681 4.12284194 247.734375 1.12109375 C258.94038195 -0.05981415 270.21921862 -0.01291979 281.47241211 0.03588867 C283.1842847 0.03949579 284.89615818 0.04269811 286.60803223 0.04553223 C291.20467794 0.05479782 295.80126933 0.07110546 300.39788508 0.08990264 C303.27652606 0.10162279 306.15516929 0.11226363 309.03381538 0.12264442 C318.06213111 0.15575807 327.09040938 0.19368924 336.11867708 0.23800963 C346.5042742 0.2888715 356.88975434 0.32304101 367.27545542 0.34319037 C375.33623142 0.35988389 383.39686 0.39176606 391.45753676 0.43503648 C396.25924927 0.46045754 401.06077881 0.47945692 405.86256218 0.48241234 C410.37153308 0.48557221 414.88002558 0.50762852 419.38884735 0.5439682 C421.03792402 0.55404537 422.68705803 0.55742736 424.33616066 0.55343819 C436.29539896 0.53005943 444.97827327 1.85684304 454.01171875 10.26171875 C460.87310841 17.66766315 462.0317143 25.98061838 461.985608 35.66631071 C461.98847118 36.73604157 461.99133435 37.80577243 461.99428429 38.90791937 C462.00148496 42.52066913 461.99434958 46.13325086 461.98737466 49.7459991 C461.98960749 52.366063 461.99271711 54.98612629 461.99662647 57.60618823 C462.00375258 63.34218103 462.00339724 69.07813636 461.99825347 74.81413072 C461.99057225 83.42613516 461.99445457 92.03810808 462.00058353 100.65011238 C462.01073487 115.39250612 462.01133014 130.13488678 462.00685649 144.87728271 C462.00233478 159.90660403 462.00218584 174.93591606 462.00732191 189.96523729 C462.0076443 190.91684371 462.00796668 191.86845013 462.00829884 192.8488931 C462.00996379 197.70736492 462.01169753 202.56583672 462.0134539 207.42430851 C462.02614141 242.95038291 462.02887663 278.47645285 462.02661896 314.00252914 C462.02435694 350.02454916 462.02641193 386.04656506 462.03376389 422.06858444 C462.03422787 424.3633389 462.03469181 426.65809337 462.03515572 428.95284783 C462.03703474 438.20496119 462.03894733 447.45707454 462.0408981 456.70918788 C462.0463896 482.79266578 462.05114817 508.87614378 462.05540204 534.95962191 C462.05569469 536.752738 462.05569469 536.752738 462.05599325 538.58207865 C462.06701101 606.61276724 462.06761266 674.64345606 462.06843497 742.67414539 C462.06856146 753.07566999 462.06869451 763.4771946 462.06883608 773.8787192 C462.06887146 776.48569081 462.06890621 779.09266242 462.06894032 781.69963402 C462.06971544 840.17363488 462.07407096 898.64763526 462.07920083 957.12163588 C462.08034394 970.16651335 462.08145188 983.21139081 462.0825621 996.25626828 C462.08267234 997.55112331 462.08278258 998.84597834 462.08289617 1000.1800714 C462.08356517 1008.03998638 462.0842327 1015.89990136 462.08489929 1023.75981635 C462.08523345 1027.69714211 462.08556847 1031.63446787 462.08590357 1035.57179363 C462.09110762 1096.79315885 462.09556811 1158.01452411 462.09926796 1219.23588943 C462.0993487 1220.56988276 462.09942944 1221.90387609 462.09951263 1223.27829346 C462.10463981 1308.3007191 462.10643753 1393.32314446 462.10591196 1478.34557024 C462.10588645 1482.5271973 462.10586253 1486.70882437 462.10583914 1490.89045144 C462.10567445 1520.26900453 462.10546903 1549.64755762 462.10525338 1579.02611072 C462.10519184 1587.44981749 462.10513171 1595.87352426 462.10507175 1604.29723103 C462.10502156 1611.32370783 462.10496998 1618.35018463 462.10491553 1625.37666143 C462.10389258 1758.10181682 462.10673034 1890.82696979 462.12561035 2023.55212402 C462.12580907 2024.9495936 462.12600779 2026.34706318 462.12621252 2027.78688032 C462.13243522 2071.45036819 462.1391682 2115.11385597 462.14599609 2158.77734375 C462.15299876 2203.57837293 462.1599396 2248.37940212 462.16652489 2293.18043137 C462.16682947 2295.24952367 462.16682947 2295.24952367 462.1671402 2297.36041582 C462.17983537 2383.72665232 462.18768163 2470.09288812 462.19024086 2556.45912552 C462.19028092 2557.79270715 462.19032097 2559.12628878 462.19036224 2560.50028198 C462.19211276 2619.06351247 462.19275248 2677.62674292 462.19218047 2736.18997343 C462.1919519 2759.7489542 462.19183977 2783.30793497 462.19177383 2806.86691573 C462.19176103 2810.77320006 462.19174287 2814.67948438 462.19172353 2818.58576871 C462.19145042 2878.36282871 462.19414952 2938.13988648 462.20581388 2997.91694546 C462.20606523 2999.20683244 462.20631657 3000.49671943 462.20657553 3001.82569389 C462.21063379 3022.57629865 462.21492177 3043.32690336 462.21922915 3064.07750807 C462.23144244 3122.96276356 462.24153763 3181.84801609 462.23728681 3240.73327303 C462.23720138 3241.92730246 462.23711595 3243.12133189 462.23702794 3244.35154403 C462.23512152 3270.3970988 462.23209023 3296.44265332 462.22795451 3322.48820783 C462.22632179 3332.87480481 462.22483456 3343.2614018 462.22339249 3353.64799881 C462.22323118 3354.78102232 462.22306988 3355.91404584 462.22290369 3357.0814034 C462.21785066 3393.05799681 462.22510442 3429.03457369 462.23942812 3465.01116422 C462.25347311 3500.4179801 462.2554379 3535.82477291 462.23965425 3571.23158881 C462.23749681 3576.07512767 462.23547911 3580.91866657 462.23354514 3585.76220551 C462.23316111 3586.71046726 462.23277707 3587.658729 462.2323814 3588.63572595 C462.22667879 3603.61828306 462.23436182 3618.60080195 462.24770635 3633.58335295 C462.26047461 3648.22384127 462.25916334 3662.86427065 462.24251859 3677.50475575 C462.23322382 3686.05548425 462.23487234 3694.6060414 462.25270667 3703.15675734 C462.26342691 3708.81586072 462.25974182 3714.4748344 462.24416532 3720.13392625 C462.23574787 3723.33946146 462.23576222 3726.54459004 462.24912485 3729.7501184 C462.26251152 3733.19216471 462.25135295 3736.63329267 462.234005 3740.07530145 C462.24374898 3741.05850913 462.25349297 3742.0417168 462.26353223 3743.05471865 C462.1816251 3750.87550504 460.37436221 3757.6173769 455.62109375 3763.92578125 C447.89032199 3771.20341719 441.98581115 3775.24487242 431.16354438 3775.24765559 C430.16847937 3775.24995647 430.16847937 3775.24995647 429.15331203 3775.25230384 C426.91461931 3775.25624791 424.67599329 3775.25303352 422.43730009 3775.24989492 C420.81306013 3775.25126275 419.18882048 3775.25306858 417.56458144 3775.25527373 C413.06575678 3775.26009361 408.56695207 3775.25863262 404.06812627 3775.25621603 C399.16890471 3775.25467985 394.26968767 3775.25892533 389.3704676 3775.2624428 C380.73897194 3775.26782915 372.10748172 3775.26945827 363.4759845 3775.26869205 C350.55419864 3775.26755924 337.63241916 3775.2721294 324.71063474 3775.27782289 C302.69206811 3775.28734742 280.67350229 3775.29205277 258.65493393 3775.29413223 C236.3291362 3775.29625165 214.00334043 3775.30050774 191.67754364 3775.30737495 C190.25524737 3775.30781004 188.83295111 3775.30824501 187.41065484 3775.30867985 C181.67614905 3775.31043649 175.94164327 3775.31220679 170.2071375 3775.31399287 C101.4465842 3775.33537944 32.68603051 3775.34626954 -36.07452537 3775.3551551 C-59.43790014 3775.3581779 -82.80127482 3775.36163844 -106.16464949 3775.36543632 C-107.35735355 3775.36562999 -107.35735355 3775.36562999 -108.57415265 3775.36582757 C-115.8118148 3775.36700304 -123.04947695 3775.36818221 -130.2871391 3775.36936484 C-212.06430023 3775.38271947 -293.84146167 3775.39511404 -460.45403874 3775.41012387 C-468.23510535 3775.41064833 -476.01617196 3775.41118565 -483.79723857 3775.41172233 C-486.39580269 3775.41190154 -488.99436681 3775.4120805 -491.59293093 3775.41225942 C-508.10117624 3775.41339651 -524.60942154 3775.41454258 -541.11766685 3775.41570762 C-545.47312644 3775.41601493 -549.82858603 3775.41632087 -554.18404562 3775.41662353 C-636.45066124 3775.42234381 -718.71727377 3775.43158874 -800.98388672 3775.45404053 C-801.85000227 3775.45427676 -802.71611781 3775.45451298 -803.60847928 3775.45475637 C-831.54069589 3775.4623843 -859.47291238 3775.47043311 -887.40512885 3775.47854164 C-914.30067273 3775.48634909 -941.19621663 3775.49407245 -968.09176064 3775.50143147 C-968.94668044 3775.50166555 -969.80160025 3775.50189964 -970.68242672 3775.50214083 C-1024.21498793 3775.51677513 -1077.74754831 3775.52657847 -1131.28011131 3775.53130627 C-1132.10677779 3775.53137986 -1132.93344427 3775.53145346 -1133.78516125 3775.53152928 C-1170.08858458 3775.5347551 -1206.39200791 3775.53692362 -1242.69543138 3775.53791228 C-1257.29996093 3775.53831311 -1271.90449049 3775.5388465 -1286.50902004 3775.53944371 C-1288.93056539 3775.53954118 -1291.35211073 3775.53963356 -1293.77365608 3775.53972509 C-1330.82484231 3775.54115421 -1367.87602457 3775.5457292 -1404.92720842 3775.55960107 C-1405.72655395 3775.55990014 -1406.52589948 3775.56019921 -1407.3494676 3775.56050734 C-1420.20844277 3775.56533605 -1433.06741785 3775.57041791 -1445.92639291 3775.57553334 C-1482.4223858 3775.59004674 -1518.91837403 3775.60257101 -1555.4143703 3775.60081518 C-1556.15460079 3775.60078041 -1556.89483128 3775.60074565 -1557.657493 3775.60070983 C-1573.80532181 3775.59991014 -1589.95315028 3775.59800202 -1606.10097883 3775.59500729 C-1612.54078162 3775.59383008 -1618.98058444 3775.59280041 -1625.42038727 3775.59181786 C-1626.1228692 3775.59170673 -1626.82535113 3775.59159561 -1627.54912039 3775.59148112 C-1649.84471168 3775.58802459 -1672.14027537 3775.5968831 -1694.43586061 3775.61283777 C-1716.98850477 3775.62892422 -1739.54111729 3775.63126831 -1762.09376498 3775.61674517 C-1774.93194843 3775.60890836 -1787.77001654 3775.61212286 -1800.60818859 3775.63138233 C-1809.12237356 3775.64307105 -1817.63647379 3775.64039028 -1826.15065408 3775.62576769 C-1830.98495228 3775.61787493 -1835.81902394 3775.61631129 -1840.65330694 3775.63238673 C-1845.03861948 3775.64685358 -1849.42351558 3775.64294937 -1853.80880899 3775.62433507 C-1855.38232799 3775.62087343 -1856.95587974 3775.62410142 -1858.52936566 3775.63487545 C-1869.58924584 3775.70555634 -1879.32849922 3774.75340846 -1887.734375 3766.8828125 C-1896.54543409 3756.74559911 -1896.55823619 3745.09534127 -1896.51517266 3732.36667281 C-1896.5170306 3730.74156353 -1896.51976554 3729.11645506 -1896.52329509 3727.49134856 C-1896.53047553 3723.00870857 -1896.5251602 3718.52615618 -1896.51787111 3714.04351956 C-1896.51213147 3709.15486505 -1896.51801301 3704.26622226 -1896.52241483 3699.37756827 C-1896.52855195 3690.77067805 -1896.52721158 3682.16381369 -1896.52107015 3673.55692384 C-1896.51191406 3660.67128697 -1896.51427598 3647.78566987 -1896.51891936 3634.9000315 C-1896.52649479 3612.9397099 -1896.52456842 3590.97939641 -1896.5174942 3569.01907539 C-1896.51035319 3546.75457862 -1896.50757034 3524.49008759 -1896.51013374 3502.22558975 C-1896.51021255 3501.52374857 -1896.51029135 3500.8219074 -1896.51037254 3500.09879831 C-1896.51109583 3493.66686989 -1896.51186585 3487.23494148 -1896.51269176 3480.80301307 C-1896.51475935 3464.6719497 -1896.51614768 3448.5408863 -1896.5170809 3432.40982282 C-1896.51712406 3431.67053536 -1896.51716721 3430.93124789 -1896.51721167 3430.16955777 C-1896.5192774 3393.70689269 -1896.51376995 3357.24422918 -1896.50765038 3320.78156471 C-1896.50549892 3307.93996883 -1896.50336719 3295.09837295 -1896.50134444 3282.25677705 C-1896.50121851 3281.45842609 -1896.50109259 3280.66007514 -1896.50096284 3279.83753174 C-1896.4951632 3242.84459433 -1896.49416099 3205.85165729 -1896.49430893 3168.8587195 C-1896.49431801 3166.43870572 -1896.49432442 3164.01869195 -1896.49432989 3161.59867817 C-1896.4943631 3147.00478098 -1896.49443189 3132.41088378 -1896.49454699 3117.81698658 C-1896.49482751 3081.53090032 -1896.49443787 3045.24481409 -1896.49355793 3008.95872784 C-1896.49353816 3008.13257038 -1896.4935184 3007.30641293 -1896.49349804 3006.4552204 C-1896.49220894 2952.93392382 -1896.48805978 2899.41262789 -1896.48169994 2845.89133167 C-1896.48159854 2845.0367022 -1896.48149713 2844.18207272 -1896.48139265 2843.30154538 C-1896.4780963 2815.54673891 -1896.47460981 2787.79193247 -1896.47110591 2760.03712603 C-1896.46769214 2732.99423312 -1896.46434811 2705.95134021 -1896.46124268 2678.90844727 C-1896.46114327 2678.04310022 -1896.46104386 2677.17775317 -1896.46094144 2676.28618348 C-1896.45154123 2594.22699599 -1896.45039691 2512.16780893 -1896.4509116 2430.10862098 C-1896.45093848 2425.76814756 -1896.45096337 2421.42767415 -1896.45098837 2417.08720074 C-1896.45101848 2411.88393312 -1896.45104873 2406.68066551 -1896.45107964 2401.4773979 C-1896.45118742 2383.32960209 -1896.45128664 2365.18180628 -1896.45136877 2347.03401048 C-1896.45138073 2344.45061996 -1896.45139348 2341.86722944 -1896.4514064 2339.28383892 C-1896.45166472 2286.70039117 -1896.45063985 2234.11694359 -1896.44807148 2181.5334959 C-1896.44803118 2180.70725544 -1896.44799089 2179.88101498 -1896.44794937 2179.02973692 C-1896.44609381 2141.10308023 -1896.4438244 2103.17642357 -1896.44122167 2065.24976692 C-1896.44105423 2062.80929265 -1896.44088721 2060.36881838 -1896.44072031 2057.92834412 C-1896.44038708 2053.05716074 -1896.440053 2048.18597737 -1896.43971855 2043.314794 C-1896.43966347 2042.51233319 -1896.43960839 2041.70987237 -1896.43955165 2040.88309457 C-1896.43899655 2032.79984814 -1896.43843867 2024.71660172 -1896.43786677 2016.6333553 C-1896.43530759 1980.45712425 -1896.43326574 1944.28089332 -1896.43288207 1908.10466218 C-1896.43286439 1906.49747846 -1896.43284668 1904.89029475 -1896.43282895 1903.28311103 C-1896.43275922 1896.8712377 -1896.43269431 1890.45936436 -1896.43263147 1884.04749102 C-1896.43221957 1842.06849086 -1896.43165914 1800.08949102 -1896.42613852 1758.11049116 C-1896.42604117 1757.36970436 -1896.42594382 1756.62891756 -1896.42584352 1755.86568268 C-1896.4237048 1739.69146455 -1896.42126147 1723.51724647 -1896.41851882 1707.34302842 C-1896.41754812 1701.60135455 -1896.41660107 1695.85968068 -1896.41566713 1690.1180068 C-1896.41543555 1688.69454112 -1896.41520289 1687.27107544 -1896.41496915 1685.84760976 C-1896.41133723 1663.64078295 -1896.41070216 1641.43395748 -1896.41185194 1619.22713044 C-1896.41300354 1596.68962609 -1896.4106146 1574.15212447 -1896.40410515 1551.61462095 C-1896.40082776 1539.94476159 -1896.39903137 1528.2749073 -1896.40186574 1516.60504768 C-1896.40474732 1503.979242 -1896.40256476 1491.35344638 -1896.39425945 1478.72764301 C-1896.39369214 1477.74931779 -1896.39312482 1476.77099257 -1896.39254031 1475.76302112 C-1896.37986293 1456.08297446 -1896.33828836 1436.40588645 -1895.99897826 1416.72838342 C-1895.98676549 1416.01706491 -1895.97455273 1415.30574641 -1895.96196988 1414.57287279 C-1895.83951557 1407.55109423 -1895.69829444 1400.5299947 -1895.52665434 1393.50923033 C-1895.20771005 1379.6045743 -1895.43914453 1365.78934494 -1896.0189532 1351.89275213 C-1896.3914603 1342.6335547 -1896.41616196 1333.37099431 -1896.4086926 1324.10527951 C-1896.40831373 1322.88630418 -1896.40793487 1321.66732885 -1896.40754452 1320.41141487 C-1896.40705691 1319.1470385 -1896.40656929 1317.88266212 -1896.40606689 1316.57997131 C-1896.40811692 1313.83272459 -1896.41163724 1311.08548014 -1896.4150703 1308.33823484 C-1896.42254273 1301.65543104 -1896.42483774 1294.97263525 -1896.42539935 1288.28982771 C-1896.42632365 1280.26765796 -1896.43302141 1272.24549534 -1896.43974617 1264.22332872 C-1896.45568734 1244.8679931 -1896.4616925 1225.51265837 -1896.46649492 1206.15731736 C-1896.46883942 1196.99583853 -1896.4724426 1187.8343603 -1896.4761903 1178.67288195 C-1896.48900536 1147.28160955 -1896.49973403 1115.89033749 -1896.5031929 1084.49906254 C-1896.50341453 1082.53485732 -1896.50363631 1080.5706521 -1896.50385825 1078.60644689 C-1896.50407889 1076.63774693 -1896.50429937 1074.66904697 -1896.5045197 1072.70034701 C-1896.50496223 1068.75132183 -1896.50540936 1064.80229666 -1896.50585938 1060.85327148 C-1896.50596877 1059.87416872 -1896.50607816 1058.89506596 -1896.50619086 1057.88629341 C-1896.50983019 1026.06233402 -1896.52579359 994.23839727 -1896.54904974 962.41444656 C-1896.57362631 928.72195258 -1896.58736437 895.02947157 -1896.58856082 861.33696836 C-1896.58873227 857.6424611 -1896.58894769 853.94795384 -1896.58919525 850.25344658 C-1896.58925102 849.34383716 -1896.58930679 848.43422774 -1896.58936425 847.4970544 C-1896.59051543 832.85216147 -1896.60154132 818.20729187 -1896.61608231 803.56240682 C-1896.63042174 788.86759201 -1896.63369842 774.17280719 -1896.62564233 759.4779873 C-1896.62117686 750.74522726 -1896.6250837 742.01256388 -1896.64088084 733.27981648 C-1896.65059964 727.45217508 -1896.64948246 721.6246017 -1896.63944461 715.79696098 C-1896.63403074 712.47381345 -1896.63505459 709.15100447 -1896.64595333 705.82784749 C-1896.65694276 702.25221299 -1896.64963124 698.67707658 -1896.6375618 695.10145664 C-1896.64515699 694.06503596 -1896.65275218 693.02861529 -1896.66057754 691.96078792 C-1896.61523128 685.78203588 -1896.03838724 681.17308639 -1891.70678711 676.40527344 C-1890.88319702 675.73093262 -1890.88319702 675.73093262 -1890.04296875 675.04296875 C-1889.42687744 674.52686035 -1888.81078613 674.01075195 -1888.17602539 673.47900391 C-1887.52496826 672.94839355 -1886.87391113 672.4177832 -1886.203125 671.87109375 C-1880.76095747 667.30644225 -1875.62728422 662.66381772 -1870.70703125 657.53515625 C-1868.74424152 655.59434977 -1866.76210148 653.81085292 -1864.66796875 652.01953125 C-1859.26065242 647.33281217 -1854.28588591 642.21302392 -1849.265625 637.12109375 C-1843.67317521 631.44880613 -1838.07795865 625.85964278 -1832.02148438 620.67675781 C-1829.32534089 618.28801667 -1826.91559968 615.67759038 -1824.515625 612.99609375 C-1824.06058594 612.49722656 -1823.60554688 611.99835937 -1823.13671875 611.484375 C-1821.14014076 609.28065923 -1819.22592294 607.06832734 -1817.4375 604.69140625 C-1815.60088706 602.51786072 -1813.86372648 600.8609218 -1811.70800781 599.03466797 C-1806.92028129 594.88321309 -1802.47179652 590.43549919 -1798.015625 585.93359375 C-1797.15807617 585.0722583 -1796.30052734 584.21092285 -1795.41699219 583.32348633 C-1792.69741611 580.59178255 -1789.981113 577.856861 -1787.265625 575.12109375 C-1783.68524474 571.51397524 -1780.10147319 567.91027573 -1776.515625 564.30859375 C-1775.70706055 563.49173096 -1774.89849609 562.67486816 -1774.06542969 561.83325195 C-1770.57062001 558.32353516 -1767.06427839 554.89055529 -1763.30664062 551.66210938 C-1758.40984782 547.44840674 -1753.90355213 542.86465717 -1749.359375 538.27734375 C-1747.94699568 536.85917725 -1746.53461339 535.44101368 -1745.12206268 534.02301788 C-1742.66774999 531.55786243 -1740.21677967 529.08938866 -1737.765625 526.62109375 C-1734.83625297 523.67123744 -1731.90626215 520.72201536 -1728.97229004 517.7767334 C-1727.15341887 515.95040946 -1725.33679848 514.12184014 -1723.52282715 512.29064941 C-1719.24720933 507.99810663 -1714.90528373 503.88914603 -1710.31115723 499.94177246 C-1706.15028396 496.23827991 -1702.27811108 492.23327902 -1698.359375 488.27734375 C-1696.94699568 486.85917725 -1695.53461339 485.44101368 -1694.12206268 484.02301788 C-1691.66774999 481.55786243 -1689.21677967 479.08938866 -1686.765625 476.62109375 C-1683.83625297 473.67123744 -1680.90626215 470.72201536 -1677.97229004 467.7767334 C-1676.15341887 465.95040946 -1674.33679848 464.12184014 -1672.52282715 462.29064941 C-1668.24720933 457.99810663 -1663.90528373 453.88914603 -1659.31115723 449.94177246 C-1655.15028396 446.23827991 -1651.27811108 442.23327902 -1647.359375 438.27734375 C-1645.94699568 436.85917725 -1644.53461339 435.44101368 -1643.12206268 434.02301788 C-1640.66774999 431.55786243 -1638.21677967 429.08938866 -1635.765625 426.62109375 C-1632.83625297 423.67123744 -1629.90626215 420.72201536 -1626.97229004 417.7767334 C-1625.15341887 415.95040946 -1623.33679848 414.12184014 -1621.52282715 412.29064941 C-1617.24720933 407.99810663 -1612.90528373 403.88914603 -1608.31115723 399.94177246 C-1604.15028396 396.23827991 -1600.27811108 392.23327902 -1596.359375 388.27734375 C-1594.94699568 386.85917725 -1593.53461339 385.44101368 -1592.12206268 384.02301788 C-1589.66774999 381.55786243 -1587.21677967 379.08938866 -1584.765625 376.62109375 C-1581.83625297 373.67123744 -1578.90626215 370.72201536 -1575.97229004 367.7767334 C-1574.15341887 365.95040946 -1572.33679848 364.12184014 -1570.52282715 362.29064941 C-1566.24720933 357.99810663 -1561.90528373 353.88914603 -1557.31115723 349.94177246 C-1553.15028396 346.23827991 -1549.27811108 342.23327902 -1545.359375 338.27734375 C-1543.94699568 336.85917725 -1542.53461339 335.44101368 -1541.12206268 334.02301788 C-1538.66774999 331.55786243 -1536.21677967 329.08938866 -1533.765625 326.62109375 C-1530.83625297 323.67123744 -1527.90626215 320.72201536 -1524.97229004 317.7767334 C-1523.15341887 315.95040946 -1521.33679848 314.12184014 -1519.52282715 312.29064941 C-1515.87140133 308.62476948 -1512.22056619 305.0199552 -1508.29248047 301.65014648 C-1503.2378876 297.30718688 -1498.60994625 292.55125876 -1493.9296875 287.8125 C-1492.95979325 286.83564484 -1491.98952052 285.85916535 -1491.01889038 284.88304138 C-1486.93254567 280.77244739 -1482.85218174 276.65595183 -1478.77587891 272.53540039 C-1476.26808899 270.00090624 -1473.75551082 267.4712426 -1471.23987961 264.94453239 C-1470.2850667 263.98350553 -1469.33215629 263.02058462 -1468.38118362 262.05575752 C-1467.06025017 260.71571255 -1465.73268215 259.38221715 -1464.40478516 258.04907227 C-1463.65170074 257.28853043 -1462.89861633 256.52798859 -1462.12271118 255.74440002 C-1460.265625 254.12109375 -1460.265625 254.12109375 -1458.265625 254.12109375 C-1458.265625 253.46109375 -1458.265625 252.80109375 -1458.265625 252.12109375 C-1456.85592651 250.73387146 -1456.85592651 250.73387146 -1454.87060547 249.09936523 C-1449.83618397 244.8152934 -1445.22651582 240.17181426 -1440.5859375 235.46875 C-1438.75273387 233.62291805 -1436.91939674 231.77721868 -1435.0859375 229.93164062 C-1432.21953893 227.04141749 -1429.35572798 224.14864851 -1426.49414062 221.25366211 C-1423.71744394 218.44517671 -1420.93290899 215.64452756 -1418.1484375 212.84375 C-1417.28703156 211.96888443 -1416.42562561 211.09401886 -1415.53811646 210.19264221 C-1414.3457991 208.99525673 -1414.3457991 208.99525673 -1413.12939453 207.77368164 C-1412.4296048 207.06643448 -1411.72981506 206.35918732 -1411.00881958 205.63050842 C-1409.265625 204.12109375 -1409.265625 204.12109375 -1407.265625 204.12109375 C-1407.265625 203.46109375 -1407.265625 202.80109375 -1407.265625 202.12109375 C-1405.85592651 200.73387146 -1405.85592651 200.73387146 -1403.87060547 199.09936523 C-1398.83618397 194.8152934 -1394.22651582 190.17181426 -1389.5859375 185.46875 C-1387.75273387 183.62291805 -1385.91939674 181.77721868 -1384.0859375 179.93164062 C-1381.21953893 177.04141749 -1378.35572798 174.14864851 -1375.49414062 171.25366211 C-1372.71744394 168.44517671 -1369.93290899 165.64452756 -1367.1484375 162.84375 C-1366.28703156 161.96888443 -1365.42562561 161.09401886 -1364.53811646 160.19264221 C-1363.3457991 158.99525673 -1363.3457991 158.99525673 -1362.12939453 157.77368164 C-1361.07970993 156.7128109 -1361.07970993 156.7128109 -1360.00881958 155.63050842 C-1358.265625 154.12109375 -1358.265625 154.12109375 -1356.265625 154.12109375 C-1356.265625 153.46109375 -1356.265625 152.80109375 -1356.265625 152.12109375 C-1354.80635071 150.68429565 -1354.80635071 150.68429565 -1352.7824707 149.01123047 C-1348.28283691 145.18252482 -1344.13827481 141.08764661 -1339.99609375 136.87890625 C-1338.43178039 135.30194468 -1336.86732275 133.72512622 -1335.30273438 132.1484375 C-1332.87875859 129.69973476 -1330.45643193 127.24944646 -1328.03686523 124.79638672 C-1312.03360973 108.58622768 -1312.03360973 108.58622768 -1303.46362305 101.87158203 C-1299.91089561 99.04218564 -1296.84579328 95.83126846 -1293.69726562 92.5625 C-1291.08171547 89.87821477 -1288.40795667 87.34742235 -1285.5625 84.90625 C-1280.36587247 80.41133661 -1275.54904721 75.55026937 -1270.703125 70.68359375 C-1269.79626953 69.78060547 -1268.88941406 68.87761719 -1267.95507812 67.94726562 C-1263.43565871 63.42129158 -1259.05009584 58.84497425 -1254.88549805 53.99047852 C-1251.61232737 50.21313596 -1248.14854059 46.60722517 -1244.72070312 42.97070312 C-1244.17220703 42.38482422 -1243.62371094 41.79894531 -1243.05859375 41.1953125 C-1242.5689917 40.67541748 -1242.07938965 40.15552246 -1241.57495117 39.61987305 C-1240.05426212 37.94451985 -1240.05426212 37.94451985 -1238.265625 35.12109375 C-1237.605625 35.12109375 -1236.945625 35.12109375 -1236.265625 35.12109375 C-1235.935625 34.13109375 -1235.605625 33.14109375 -1235.265625 32.12109375 C-1234.605625 32.12109375 -1233.945625 32.12109375 -1233.265625 32.12109375 C-1233.02070312 31.55003906 -1232.77578125 30.97898438 -1232.5234375 30.390625 C-1228.90145776 23.85531373 -1222.01323013 18.7734126 -1216.3828125 13.95703125 C-1213.00677125 11.0294678 -1209.74306063 7.97774527 -1206.46484375 4.94140625 C-1202.78475009 1.8953607 -1199.63541984 1.97900247 -1195.01647758 1.918437 C-1194.04546879 1.90399078 -1194.04546879 1.90399078 -1193.05484366 1.8892527 C-1190.83859034 1.85793949 -1188.62232453 1.83409466 -1186.40597534 1.81059265 C-1184.76898313 1.79021078 -1183.13199337 1.76963174 -1181.49500585 1.74887669 C-1176.84508109 1.69226993 -1172.19510176 1.6441903 -1167.54505578 1.59873129 C-1164.47076828 1.56865777 -1161.39649675 1.53719966 -1158.32222342 1.50571382 C-1086.12389193 0.78233923 -1013.91710655 0.95613063 -941.71610368 0.95403166 C-926.47832644 0.95358401 -911.2405502 0.95148875 -896.00277328 0.94833946 C-891.56928345 0.94744168 -887.13579361 0.94655184 -882.70230377 0.94566458 C-881.59948664 0.94544354 -880.49666951 0.94522249 -879.36043368 0.94499474 C-848.54375665 0.93888098 -817.72707996 0.93489027 -786.9104023 0.93533802 C-785.18299766 0.93536139 -785.18299766 0.93536139 -783.42069597 0.93538523 C-777.58737116 0.9354683 -771.75404635 0.93556734 -765.92072155 0.93566994 C-764.76269447 0.93568988 -763.6046674 0.93570983 -762.41154859 0.93573038 C-760.06980136 0.93577081 -757.72805413 0.93581261 -755.3863069 0.93585577 C-718.71635563 0.93647246 -682.0464135 0.92887334 -645.37646484 0.9152832 C-603.9715143 0.89994368 -562.56656977 0.89131485 -521.16161621 0.89224643 C-516.75767573 0.89232104 -512.35373525 0.89236976 -507.94979477 0.89240074 C-506.86577217 0.8924124 -505.78174957 0.89242405 -504.6648778 0.89243606 C-487.2268759 0.89246682 -469.788882 0.88608593 -452.35088248 0.87746848 C-434.90076689 0.86902162 -417.45066309 0.8679795 -400.00054659 0.8745778 C-389.63361368 0.87828627 -379.26671648 0.87640171 -368.89978731 0.86663546 C-361.99033097 0.86067331 -355.08090072 0.86188838 -348.17144562 0.86910596 C-344.22839215 0.873018 -340.28540822 0.87367613 -336.34235944 0.8656486 C-332.10943554 0.85710524 -327.87667902 0.8638064 -323.64375496 0.87220478 C-322.40260006 0.8672366 -321.16144517 0.86226842 -319.88267952 0.85714969 C-318.76464929 0.8619005 -317.64661907 0.86665131 -316.49470913 0.87154609 C-315.52571118 0.87145787 -314.55671323 0.87136965 -313.5583517 0.87127875 C-311.265625 1.12109375 -311.265625 1.12109375 -309.265625 3.12109375 C-308.66916958 5.2553981 -308.16842179 7.41677151 -307.71484375 9.5859375 C-307.57592712 10.24207031 -307.4370105 10.89820313 -307.29388428 11.57421875 C-306.83918901 13.73413201 -306.39594298 15.89621681 -305.953125 18.05859375 C-305.63909003 19.56395376 -305.32471495 21.06924285 -305.01000977 22.57446289 C-303.3658422 30.48851634 -301.80447599 38.41365901 -300.37207031 46.36914062 C-300.15131836 47.58666016 -299.93056641 48.80417969 -299.703125 50.05859375 C-299.5374748 50.98403803 -299.37182461 51.90948231 -299.20115471 52.86297035 C-297.85360493 60.26193689 -296.27205514 67.56643917 -294.51904297 74.87841797 C-291.01934396 89.78478299 -288.09721379 104.79285073 -285.20517588 119.82547998 C-284.46788523 123.652367 -283.72517959 127.47820338 -282.98312378 131.3041687 C-281.58777217 138.50265605 -280.19707477 145.70203377 -278.80818069 152.90176952 C-277.2229169 161.11817273 -275.63226396 169.3335299 -274.04122758 177.54881692 C-270.77682805 194.40511105 -267.51897092 211.2626628 -264.265625 228.12109375 C-263.64745147 217.41676494 -263.03003785 206.71239256 -262.4134922 196.00796986 C-262.12691884 191.0328811 -261.84012139 186.0578055 -261.55273438 181.08276367 C-261.27474415 176.26999284 -260.99729957 171.45719087 -260.72035789 166.64435959 C-260.60973204 164.72209418 -260.49899484 162.79983519 -260.38814735 160.87758255 C-259.80570542 150.76827772 -259.23473547 140.65864591 -258.70581055 130.54638672 C-258.66166267 129.70737037 -258.6175148 128.86835402 -258.57202911 128.00391293 C-258.36712205 124.10556855 -258.16515434 120.20712421 -257.96951294 116.30830383 C-257.36333212 104.51278781 -256.26385484 92.79354144 -255.046875 81.046875 C-254.23732532 73.09264861 -253.61930647 65.12817366 -253.00869751 57.15661621 C-251.97349187 43.6956188 -250.71393834 30.28038512 -249.140625 16.87109375 C-249.01108932 15.75182999 -249.01108932 15.75182999 -248.87893677 14.60995483 C-248.63583999 12.52440681 -248.38595592 10.43981859 -248.1328125 8.35546875 C-247.91794189 6.57994629 -247.91794189 6.57994629 -247.69873047 4.76855469 C-247.265625 2.12109375 -247.265625 2.12109375 -246.265625 1.12109375 C-243.42790687 1.01297413 -240.61407988 0.97058722 -237.77554321 0.96960449 C-236.87434041 0.96537208 -235.97313761 0.96113967 -235.04462564 0.956779 C-232.00061475 0.94367962 -228.9566301 0.93771146 -225.91259766 0.93164062 C-223.74000384 0.92370397 -221.56741163 0.91531648 -219.39482117 0.9065094 C-214.70431608 0.88841006 -210.01381463 0.87340959 -205.32329178 0.86073303 C-197.91247536 0.84056917 -190.50169885 0.81290874 -183.09091187 0.78405762 C-167.35750187 0.72387509 -151.6240669 0.67207624 -135.890625 0.62109375 C-118.91490135 0.56607492 -101.93918831 0.50959973 -84.96350324 0.44354486 C-77.59078499 0.41514298 -70.21807148 0.39156551 -62.84532571 0.37162018 C-58.26399494 0.35825781 -53.68268616 0.34084374 -49.10137367 0.32230949 C-46.97083783 0.31453617 -44.84029499 0.30847418 -42.70974922 0.30421638 C-39.80968646 0.29819284 -36.90970985 0.28615575 -34.00967407 0.27258301 C-33.15919514 0.27228702 -32.30871621 0.27199103 -31.4324652 0.27168608 C-20.73133769 0.20462696 -10.87522719 -1.70715776 0 0 Z M-1213.04067224 95.81659836 C-1216.21524324 100.32490095 -1220.02450526 103.64549671 -1224.265625 107.12109375 C-1225.86083852 108.64502737 -1227.43980705 110.18634558 -1228.99414062 111.75195312 C-1230.24584045 113.00860779 -1230.24584045 113.00860779 -1231.52282715 114.29064941 C-1232.83410583 115.61437561 -1232.83410583 115.61437561 -1234.171875 116.96484375 C-1235.58425432 118.38301025 -1236.99663661 119.80117382 -1238.40918732 121.21916962 C-1240.86350001 123.68432507 -1243.31447033 126.15279884 -1245.765625 128.62109375 C-1248.69499703 131.57095006 -1251.62498785 134.52017214 -1254.55895996 137.4654541 C-1256.37783113 139.29177804 -1258.19445152 141.12034736 -1260.00842285 142.95153809 C-1264.28404067 147.24408087 -1268.62596627 151.35304147 -1273.22009277 155.30041504 C-1277.38096604 159.00390759 -1281.25313892 163.00890848 -1285.171875 166.96484375 C-1286.58425432 168.38301025 -1287.99663661 169.80117382 -1289.40918732 171.21916962 C-1291.86350001 173.68432507 -1294.31447033 176.15279884 -1296.765625 178.62109375 C-1299.69499703 181.57095006 -1302.62498785 184.52017214 -1305.55895996 187.4654541 C-1307.37783113 189.29177804 -1309.19445152 191.12034736 -1311.00842285 192.95153809 C-1315.28404067 197.24408087 -1319.62596627 201.35304147 -1324.22009277 205.30041504 C-1328.38096604 209.00390759 -1332.25313892 213.00890848 -1336.171875 216.96484375 C-1337.58425432 218.38301025 -1338.99663661 219.80117382 -1340.40918732 221.21916962 C-1342.86350001 223.68432507 -1345.31447033 226.15279884 -1347.765625 228.62109375 C-1350.69499703 231.57095006 -1353.62498785 234.52017214 -1356.55895996 237.4654541 C-1358.37783113 239.29177804 -1360.19445152 241.12034736 -1362.00842285 242.95153809 C-1366.28404067 247.24408087 -1370.62596627 251.35304147 -1375.22009277 255.30041504 C-1379.38096604 259.00390759 -1383.25313892 263.00890848 -1387.171875 266.96484375 C-1388.58425432 268.38301025 -1389.99663661 269.80117382 -1391.40918732 271.21916962 C-1393.86350001 273.68432507 -1396.31447033 276.15279884 -1398.765625 278.62109375 C-1401.69499703 281.57095006 -1404.62498785 284.52017214 -1407.55895996 287.4654541 C-1409.37783113 289.29177804 -1411.19445152 291.12034736 -1413.00842285 292.95153809 C-1417.28404067 297.24408087 -1421.62596627 301.35304147 -1426.22009277 305.30041504 C-1430.38096604 309.00390759 -1434.25313892 313.00890848 -1438.171875 316.96484375 C-1439.58425432 318.38301025 -1440.99663661 319.80117382 -1442.40918732 321.21916962 C-1444.86350001 323.68432507 -1447.31447033 326.15279884 -1449.765625 328.62109375 C-1452.69499703 331.57095006 -1455.62498785 334.52017214 -1458.55895996 337.4654541 C-1460.37783113 339.29177804 -1462.19445152 341.12034736 -1464.00842285 342.95153809 C-1468.28404067 347.24408087 -1472.62596627 351.35304147 -1477.22009277 355.30041504 C-1481.38096604 359.00390759 -1485.25313892 363.00890848 -1489.171875 366.96484375 C-1490.58425432 368.38301025 -1491.99663661 369.80117382 -1493.40918732 371.21916962 C-1495.86350001 373.68432507 -1498.31447033 376.15279884 -1500.765625 378.62109375 C-1503.69499703 381.57095006 -1506.62498785 384.52017214 -1509.55895996 387.4654541 C-1511.37783113 389.29177804 -1513.19445152 391.12034736 -1515.00842285 392.95153809 C-1519.28404067 397.24408087 -1523.62596627 401.35304147 -1528.22009277 405.30041504 C-1532.38096604 409.00390759 -1536.25313892 413.00890848 -1540.171875 416.96484375 C-1541.58425432 418.38301025 -1542.99663661 419.80117382 -1544.40918732 421.21916962 C-1546.86350001 423.68432507 -1549.31447033 426.15279884 -1551.765625 428.62109375 C-1554.69499703 431.57095006 -1557.62498785 434.52017214 -1560.55895996 437.4654541 C-1562.37783113 439.29177804 -1564.19445152 441.12034736 -1566.00842285 442.95153809 C-1570.28404067 447.24408087 -1574.62596627 451.35304147 -1579.22009277 455.30041504 C-1583.38096604 459.00390759 -1587.25313892 463.00890848 -1591.171875 466.96484375 C-1592.58425432 468.38301025 -1593.99663661 469.80117382 -1595.40918732 471.21916962 C-1597.86350001 473.68432507 -1600.31447033 476.15279884 -1602.765625 478.62109375 C-1605.69499703 481.57095006 -1608.62498785 484.52017214 -1611.55895996 487.4654541 C-1613.37783113 489.29177804 -1615.19445152 491.12034736 -1617.00842285 492.95153809 C-1621.28404067 497.24408087 -1625.62596627 501.35304147 -1630.22009277 505.30041504 C-1634.38096604 509.00390759 -1638.25313892 513.00890848 -1642.171875 516.96484375 C-1643.58425432 518.38301025 -1644.99663661 519.80117382 -1646.40918732 521.21916962 C-1648.86350001 523.68432507 -1651.31447033 526.15279884 -1653.765625 528.62109375 C-1656.69499703 531.57095006 -1659.62498785 534.52017214 -1662.55895996 537.4654541 C-1664.37783113 539.29177804 -1666.19445152 541.12034736 -1668.00842285 542.95153809 C-1672.28404067 547.24408087 -1676.62596627 551.35304147 -1681.22009277 555.30041504 C-1685.38096604 559.00390759 -1689.25313892 563.00890848 -1693.171875 566.96484375 C-1694.58425432 568.38301025 -1695.99663661 569.80117382 -1697.40918732 571.21916962 C-1699.86350001 573.68432507 -1702.31447033 576.15279884 -1704.765625 578.62109375 C-1707.69499703 581.57095006 -1710.62498785 584.52017214 -1713.55895996 587.4654541 C-1715.37783113 589.29177804 -1717.19445152 591.12034736 -1719.00842285 592.95153809 C-1723.28404067 597.24408087 -1727.62596627 601.35304147 -1732.22009277 605.30041504 C-1736.38096604 609.00390759 -1740.25313892 613.00890848 -1744.171875 616.96484375 C-1745.58425432 618.38301025 -1746.99663661 619.80117382 -1748.40918732 621.21916962 C-1750.86350001 623.68432507 -1753.31447033 626.15279884 -1755.765625 628.62109375 C-1758.69499703 631.57095006 -1761.62498785 634.52017214 -1764.55895996 637.4654541 C-1766.37783113 639.29177804 -1768.19445152 641.12034736 -1770.00842285 642.95153809 C-1773.668219 646.62582148 -1777.32883225 650.2384789 -1781.26342773 653.61889648 C-1786.16192094 657.8277778 -1790.66414166 662.41414055 -1795.20703125 667 C-1796.62290986 668.42166528 -1798.03879139 669.84332766 -1799.45484066 671.26482296 C-1801.91476832 673.73559451 -1804.3713501 676.20968793 -1806.828125 678.68359375 C-1809.76779305 681.64373302 -1812.70807801 684.60324026 -1815.65232849 687.55882263 C-1817.47783441 689.39179707 -1819.30108614 691.22702018 -1821.12171936 693.06483459 C-1822.37353249 694.32160255 -1822.37353249 694.32160255 -1823.65063477 695.60375977 C-1824.37485123 696.33321304 -1825.09906769 697.06266632 -1825.8452301 697.81422424 C-1828.265625 700.12109375 -1828.265625 700.12109375 -1830.0036478 701.25312763 C-1833.00113018 703.33262985 -1834.95102446 704.93918545 -1835.91009802 708.54228479 C-1836.14981127 711.60200985 -1836.16473646 714.5935338 -1836.10740662 717.662323 C-1836.11338759 718.83126197 -1836.11936856 720.00020094 -1836.12553078 721.20456231 C-1836.13505663 724.44118905 -1836.1132303 727.67584573 -1836.07808435 730.91223955 C-1836.04781946 734.40500777 -1836.05808716 737.89768623 -1836.06340027 741.39054871 C-1836.06706858 747.43935721 -1836.04513001 753.48763667 -1836.0057354 759.5363121 C-1835.94881532 768.28155684 -1835.93061225 777.02654608 -1835.92181946 785.77195598 C-1835.90650376 799.96107136 -1835.85993222 814.14990485 -1835.79370117 828.33886719 C-1835.72943569 842.12107941 -1835.67989283 855.90321504 -1835.65014648 869.68554688 C-1835.64830742 870.53526427 -1835.64646836 871.38498167 -1835.64457356 872.26044808 C-1835.63543822 876.5232841 -1835.62659228 880.78612066 -1835.61789024 885.04895759 C-1835.54533785 920.40653725 -1835.4220588 955.76378949 -1835.265625 991.12109375 C-1834.16973257 990.87743614 -1834.16973257 990.87743614 -1833.05170091 990.62885616 C-1830.51480731 990.16650723 -1828.25925428 989.99637389 -1825.68841046 989.99689525 C-1824.79275558 989.99464796 -1823.8971007 989.99240067 -1822.97430477 989.99008527 C-1821.50918566 989.99402579 -1821.50918566 989.99402579 -1820.01446819 989.99804592 C-1818.44322452 989.99631515 -1818.44322452 989.99631515 -1816.84023854 989.99454942 C-1813.3070254 989.99188865 -1809.77385721 989.99640055 -1806.24064636 990.00083923 C-1803.69132915 990.00040342 -1801.14201198 989.99952833 -1798.59269506 989.99825007 C-1793.03811434 989.99647617 -1787.48354771 989.99782161 -1781.92896843 990.00188828 C-1773.66948912 990.0079185 -1765.41001657 990.00822452 -1757.15053546 990.00734629 C-1743.25738503 990.00603171 -1729.36423936 990.00937636 -1715.47109032 990.01536369 C-1701.71237349 990.02127791 -1687.95365865 990.02512907 -1674.19494057 990.02621651 C-1673.3399083 990.02628525 -1672.48487604 990.02635399 -1671.6039337 990.02642481 C-1667.26177079 990.02676314 -1662.91960787 990.02706452 -1658.57744495 990.02735168 C-1627.81082458 990.02945287 -1597.0442068 990.03619239 -1566.27758789 990.0456543 C-1536.38566095 990.0548366 -1506.49373471 990.06192126 -1476.60180664 990.06616211 C-1475.68063177 990.06629364 -1474.75945691 990.06642516 -1473.81036765 990.06656067 C-1464.559668 990.06787918 -1455.30896835 990.06915499 -1446.05826869 990.07039953 C-1427.21302483 990.07293584 -1408.36778102 990.07575709 -1389.52253723 990.07875061 C-1388.22278691 990.07895655 -1388.22278691 990.07895655 -1386.896779 990.07916664 C-1329.01972658 990.08836946 -1271.14267563 990.10423569 -1213.265625 990.12109375 C-1212.29482679 993.03348837 -1212.20563097 994.43761208 -1212.41162109 997.41796875 C-1212.46853119 998.28317139 -1212.52544128 999.14837402 -1212.58407593 1000.03979492 C-1212.68554428 1001.44128784 -1212.68554428 1001.44128784 -1212.7890625 1002.87109375 C-1212.85469391 1003.83958252 -1212.92032532 1004.80807129 -1212.98794556 1005.8059082 C-1213.19992918 1008.91138253 -1213.42032422 1012.01619954 -1213.640625 1015.12109375 C-1213.78176947 1017.18225616 -1213.92240027 1019.24345381 -1214.0625 1021.3046875 C-1214.70071477 1030.58889391 -1215.42289898 1039.85110749 -1216.265625 1049.12109375 C-1420.535625 1048.79109375 -1624.805625 1048.46109375 -1835.265625 1048.12109375 C-1835.265625 1145.47109375 -1835.265625 1242.82109375 -1835.265625 1343.12109375 C-1787.92295166 1343.1461499 -1740.58027832 1343.17120605 -1691.80297852 1343.19702148 C-1630.59206254 1343.22970127 -1630.59206254 1343.22970127 -1602.78369692 1343.24476897 C-1599.8470798 1343.24636005 -1596.91046269 1343.2479511 -1593.97384557 1343.24954145 C-1525.40695567 1343.28667493 -1456.84006662 1343.32517474 -1388.2731781 1343.36476135 C-1386.04764101 1343.36604588 -1383.82210392 1343.36733041 -1381.59656682 1343.36861493 C-1334.88550786 1343.39557985 -1288.17444901 1343.42275036 -1241.4633903 1343.45015848 C-1218.00008432 1343.46392556 -1194.53677832 1343.47765312 -1171.0734723 1343.49134332 C-1167.53404479 1343.49340871 -1163.99461728 1343.49547523 -1160.45518977 1343.49754179 C-1105.93069852 1343.52936703 -1051.40620695 1343.56034288 -996.88171387 1343.58886719 C-995.70872545 1343.58948085 -994.53573704 1343.59009451 -993.32720353 1343.59072677 C-974.41426191 1343.60061613 -955.50132025 1343.61043443 -936.58837859 1343.6202433 C-882.13617563 1343.64848508 -827.68397318 1343.67724931 -773.23177242 1343.7094965 C-771.55334628 1343.7104901 -771.55334628 1343.7104901 -769.84101254 1343.71150377 C-745.2817206 1343.72605187 -720.72242884 1343.74087041 -696.16313723 1343.75594529 C-686.28241781 1343.76200546 -676.40169837 1343.76802667 -666.52097893 1343.7740345 C-665.43955401 1343.77469298 -664.3581291 1343.77535147 -663.24393373 1343.77602991 C-628.3574378 1343.79725306 -593.4709411 1343.81530047 -558.58444259 1343.83169412 C-523.46329514 1343.84821249 -488.34215091 1343.86782092 -453.22100769 1343.89176806 C-448.37540143 1343.89507123 -443.52979514 1343.89833869 -438.68418884 1343.90158463 C-437.25928533 1343.90254106 -437.25928533 1343.90254106 -435.8055959 1343.90351682 C-420.72112968 1343.91354925 -405.6366639 1343.92020749 -390.55219534 1343.92548148 C-375.74496006 1343.93072711 -360.93773042 1343.939491 -346.13049952 1343.95208149 C-337.43286294 1343.95936871 -328.73523528 1343.96387295 -320.0375956 1343.96439322 C-314.27671479 1343.96500666 -308.515844 1343.96917818 -302.75496765 1343.97636591 C-299.47928998 1343.98034957 -296.20363629 1343.98216596 -292.92795588 1343.98072025 C-289.42255634 1343.97940983 -285.91721794 1343.98412026 -282.41182524 1343.99048322 C-281.38392124 1343.9886336 -280.35601724 1343.98678398 -279.29696463 1343.9848783 C-278.37464289 1343.98781979 -277.45232114 1343.99076128 -276.50205025 1343.9937919 C-275.70177598 1343.99423995 -274.9015017 1343.994688 -274.07697669 1343.99514962 C-272.265625 1344.12109375 -272.265625 1344.12109375 -271.265625 1345.12109375 C-271.30651268 1348.11218491 -271.41912007 1351.0727461 -271.578125 1354.05859375 C-271.62517578 1355.00049561 -271.67222656 1355.94239746 -271.72070312 1356.9128418 C-271.89488063 1360.31602286 -272.0799415 1363.71852112 -272.265625 1367.12109375 C-272.34306996 1368.5738861 -272.42037454 1370.02668595 -272.49755859 1371.47949219 C-272.70440383 1375.35605762 -272.91780791 1379.23221887 -273.1355896 1383.10818481 C-273.2224258 1384.66106717 -273.30789084 1386.21402679 -273.39199829 1387.76705933 C-273.51185019 1389.96479343 -273.63788976 1392.16208681 -273.765625 1394.359375 C-273.8378125 1395.63852783 -273.91 1396.91768066 -273.984375 1398.2355957 C-274.265625 1401.12109375 -274.265625 1401.12109375 -275.265625 1402.12109375 C-276.67236618 1402.21908023 -278.08400876 1402.24760458 -279.49415821 1402.2483956 C-280.41471418 1402.25133708 -281.33527015 1402.25427857 -282.28372176 1402.2573092 C-283.82261112 1402.25453476 -283.82261112 1402.25453476 -285.39258915 1402.25170428 C-286.47717386 1402.25367679 -287.56175857 1402.2556493 -288.67920948 1402.25768159 C-292.37007453 1402.26314593 -296.0609027 1402.26139103 -299.75177097 1402.25975895 C-302.41340555 1402.26220329 -305.075037 1402.26504448 -307.73667035 1402.26837173 C-313.57112654 1402.27485541 -319.40557542 1402.27758208 -325.24003506 1402.27793176 C-333.97443988 1402.27847502 -342.70883401 1402.2847558 -351.44323533 1402.29219688 C-366.32564683 1402.30470748 -381.20805748 1402.31246128 -396.09047318 1402.31767464 C-411.18197891 1402.32298051 -426.27348123 1402.33045352 -441.36498451 1402.34060287 C-442.31652091 1402.34124151 -443.26805732 1402.34188014 -444.24842816 1402.34253813 C-449.099915 1402.34580432 -453.95140181 1402.34910607 -458.80288862 1402.35242039 C-493.96092215 1402.37636594 -529.11895699 1402.3954667 -564.27699471 1402.41201973 C-599.10614234 1402.42843205 -633.93528788 1402.44690458 -668.76443291 1402.468153 C-670.38554941 1402.46914059 -670.38554941 1402.46914059 -672.03941575 1402.47014814 C-681.91001831 1402.47616246 -691.78062086 1402.48220226 -701.65122338 1402.48827264 C-726.19094877 1402.50336416 -750.73067434 1402.51813599 -775.27040005 1402.532691 C-776.38801636 1402.53335414 -777.50563268 1402.53401728 -778.65711616 1402.53470051 C-833.05306633 1402.56694842 -887.44901835 1402.59551351 -941.8449707 1402.6237793 C-960.72698976 1402.63359301 -979.60900882 1402.64342299 -998.49102783 1402.65332031 C-999.66205602 1402.65393411 -1000.8330842 1402.65454791 -1002.03959809 1402.65518031 C-1056.4544302 1402.68372428 -1110.86926073 1402.71488056 -1165.28409101 1402.74671282 C-1168.81574787 1402.74877877 -1172.34740473 1402.75084359 -1175.87906159 1402.75290817 C-1199.28308588 1402.76659185 -1222.68711013 1402.78032059 -1246.09113437 1402.79407952 C-1292.66129936 1402.82145712 -1339.23146451 1402.84856986 -1385.80162976 1402.8755007 C-1388.01953726 1402.87678328 -1390.23744477 1402.87806605 -1392.45535228 1402.87934901 C-1460.78509931 1402.91887353 -1529.11484693 1402.95720238 -1597.44459534 1402.99427795 C-1600.20135454 1402.99577445 -1602.95811374 1402.99727095 -1605.71487294 1402.99876755 C-1682.23178991 1403.04027018 -1758.74870754 1403.08051922 -1835.265625 1403.12109375 C-1835.265625 1608.38109375 -1835.265625 1813.64109375 -1835.265625 2025.12109375 C-1768.20484741 2025.15867798 -1768.20484741 2025.15867798 -1699.78930664 2025.19702148 C-1641.9858853 2025.22970127 -1641.9858853 2025.22970127 -1615.72554583 2025.24476897 C-1612.95240329 2025.24636005 -1610.17926075 2025.2479511 -1607.40611821 2025.24954145 C-1542.65611558 2025.28667497 -1477.90611384 2025.32517478 -1413.15611267 2025.36476135 C-1411.0544616 2025.36604588 -1408.95281054 2025.36733041 -1406.85115947 2025.36861493 C-1362.74029087 2025.39557985 -1318.62942239 2025.42275037 -1274.51855406 2025.45015848 C-1252.36133852 2025.46392556 -1230.20412295 2025.47765312 -1208.04690736 2025.49134332 C-1204.70450318 2025.49340871 -1201.362099 2025.49547523 -1198.01969482 2025.49754179 C-1146.53040359 2025.52936698 -1095.04111202 2025.56034282 -1043.55181885 2025.58886719 C-1041.89028431 2025.58978768 -1041.89028431 2025.58978768 -1040.19518342 2025.59072677 C-1022.33510348 2025.60061613 -1004.4750235 2025.61043442 -986.61494352 2025.6202433 C-935.19395257 2025.64848512 -883.77296215 2025.6772494 -832.35197353 2025.7094965 C-831.295309 2025.7101589 -830.23864446 2025.7108213 -829.14995979 2025.71150377 C-805.95774184 2025.72605188 -782.76552408 2025.74087042 -759.57330647 2025.75594529 C-750.24258577 2025.76200546 -740.91186506 2025.76802667 -731.58114433 2025.7740345 C-730.55991576 2025.77469298 -729.53868718 2025.77535147 -728.48651228 2025.77602991 C-695.5420849 2025.79725296 -662.59765672 2025.81530041 -629.65322661 2025.83169412 C-596.48713501 2025.84821259 -563.32104682 2025.86782108 -530.1549597 2025.89176806 C-525.57906091 2025.89507123 -521.00316209 2025.89833869 -516.42726326 2025.90158463 C-515.53020142 2025.90222225 -514.63313958 2025.90285988 -513.70889406 2025.90351682 C-499.46419205 2025.91354914 -485.21949051 2025.92020744 -470.97478603 2025.92548148 C-456.99178728 2025.93072718 -443.00879451 2025.93949119 -429.02580041 2025.95208149 C-420.81237445 2025.95936855 -412.59895794 2025.96387294 -404.3855287 2025.96439322 C-398.31151821 2025.96507815 -392.23752463 2025.97089023 -386.16351877 2025.97881437 C-383.70398943 2025.98120162 -381.24445775 2025.98186981 -378.78492753 2025.98072025 C-375.47458726 2025.97940973 -372.16431171 2025.98412058 -368.85397869 2025.99048322 C-367.88342973 2025.9886336 -366.91288076 2025.98678398 -365.91292122 2025.9848783 C-365.04180696 2025.98781979 -364.17069269 2025.99076128 -363.27318102 2025.9937919 C-362.51745533 2025.99423995 -361.76172963 2025.994688 -360.98310316 2025.99514962 C-359.265625 2026.12109375 -359.265625 2026.12109375 -358.265625 2027.12109375 C-358.265625 2045.93109375 -358.265625 2064.74109375 -358.265625 2084.12109375 C-845.675625 2084.45109375 -1333.085625 2084.78109375 -1835.265625 2085.12109375 C-1835.265625 2172.57109375 -1835.265625 2260.02109375 -1835.265625 2350.12109375 C-1474.410625 2350.61609375 -1474.410625 2350.61609375 -1106.265625 2351.12109375 C-1106.265625 2368.61109375 -1106.265625 2386.10109375 -1106.265625 2404.12109375 C-1105.935625 2405.77109375 -1105.605625 2407.42109375 -1105.265625 2409.12109375 C-1466.615625 2409.61609375 -1466.615625 2409.61609375 -1835.265625 2410.12109375 C-1835.265625 2530.24109375 -1835.265625 2650.36109375 -1835.265625 2774.12109375 C-1781.62201416 2774.1461499 -1727.97840332 2774.17120605 -1672.70922852 2774.19702148 C-1603.35165887 2774.22970127 -1603.35165887 2774.22970127 -1571.84226504 2774.24476897 C-1568.51481215 2774.24636005 -1565.18735927 2774.2479511 -1561.85990639 2774.24954145 C-1484.16758485 2774.28667485 -1406.47526405 2774.32517466 -1328.78294373 2774.36476135 C-1326.26121935 2774.36604588 -1323.73949498 2774.36733041 -1321.2177706 2774.36861493 C-1268.29016456 2774.39557983 -1215.36255863 2774.42275034 -1162.43495281 2774.45015848 C-1135.84903981 2774.46392557 -1109.26312679 2774.47765316 -1082.67721375 2774.49134332 C-1080.00392154 2774.49271995 -1077.33062933 2774.49409708 -1074.65733713 2774.49547468 C-1011.53909616 2774.52800018 -948.42085494 2774.55972838 -885.3026123 2774.58886719 C-884.63801912 2774.58917406 -883.97342594 2774.58948092 -883.28869357 2774.58979709 C-861.18734145 2774.60000088 -839.08598929 2774.61012741 -816.98463713 2774.6202433 C-755.28539856 2774.64848403 -693.58616042 2774.67724914 -631.88692379 2774.7094965 C-630.61905883 2774.7101589 -629.35119387 2774.7108213 -628.04490875 2774.71150377 C-600.21721005 2774.72605185 -572.38951149 2774.74087039 -544.56181307 2774.75594529 C-533.36615418 2774.76200546 -522.17049527 2774.76802667 -510.97483635 2774.7740345 C-509.74949375 2774.77469298 -508.52415116 2774.77535147 -507.26167697 2774.77602991 C-467.73207463 2774.79725325 -428.20247162 2774.81530059 -388.67286701 2774.83169412 C-348.87756298 2774.8482123 -309.08226179 2774.86782061 -269.28696151 2774.89176806 C-263.79653738 2774.89507123 -258.30611324 2774.89833869 -252.81568909 2774.90158463 C-251.73934241 2774.90222225 -250.66299573 2774.90285988 -249.55403248 2774.90351682 C-232.46185414 2774.91354946 -215.36967618 2774.92020757 -198.27749578 2774.92548148 C-181.49967192 2774.93072696 -164.72185303 2774.93949063 -147.94403304 2774.95208149 C-138.08874342 2774.95936902 -128.23346168 2774.96387298 -118.37816934 2774.96439322 C-111.85068724 2774.96500662 -105.32321398 2774.96917771 -98.79573582 2774.97636591 C-95.08405646 2774.98034993 -91.3723947 2774.98270947 -87.66071333 2774.98072025 C-83.68897245 2774.97862519 -79.7172642 2774.98411961 -75.74552733 2774.99048322 C-74.58049864 2774.9886336 -73.41546996 2774.98678398 -72.21513738 2774.9848783 C-71.17038856 2774.98781979 -70.12563974 2774.99076128 -69.04923186 2774.9937919 C-67.68906002 2774.99446397 -67.68906002 2774.99446397 -66.30140996 2774.99514962 C-64.265625 2775.12109375 -64.265625 2775.12109375 -63.265625 2776.12109375 C-63.14834285 2777.61269637 -63.09837525 2779.10967128 -63.07617188 2780.60571289 C-63.05945435 2781.56083267 -63.04273682 2782.51595245 -63.0255127 2783.50001526 C-63.01193726 2784.54157272 -62.99836182 2785.58313019 -62.984375 2786.65625 C-62.96596558 2787.72346786 -62.94755615 2788.79068573 -62.92858887 2789.89024353 C-62.86963366 2793.32130223 -62.81696915 2796.75241323 -62.765625 2800.18359375 C-62.7141001 2803.58977499 -62.66106394 2806.99589164 -62.60266113 2810.40196228 C-62.56627715 2812.5244244 -62.53378423 2814.64695785 -62.5057373 2816.76954651 C-62.48901978 2817.74673141 -62.47230225 2818.72391632 -62.45507812 2819.73071289 C-62.44255005 2820.58041153 -62.43002197 2821.43011017 -62.41711426 2822.30555725 C-62.22232397 2825.92587443 -61.71531959 2829.52353701 -61.265625 2833.12109375 C-646.685625 2833.45109375 -1232.105625 2833.78109375 -1835.265625 2834.12109375 C-1835.265625 2915.63109375 -1835.265625 2997.14109375 -1835.265625 3081.12109375 C-1548.825625 3081.45109375 -1262.385625 3081.78109375 -967.265625 3082.12109375 C-967.595625 3084.76109375 -967.925625 3087.40109375 -968.265625 3090.12109375 C-968.265625 3106.62109375 -968.265625 3123.12109375 -968.265625 3140.12109375 C-1254.375625 3140.45109375 -1540.485625 3140.78109375 -1835.265625 3141.12109375 C-1835.265625 3244.41109375 -1835.265625 3347.70109375 -1835.265625 3454.12109375 C-1161.735625 3454.45109375 -488.205625 3454.78109375 205.734375 3455.12109375 C205.734375 3463.04109375 205.734375 3470.96109375 205.734375 3479.12109375 C206.064375 3490.67109375 206.394375 3502.22109375 206.734375 3514.12109375 C-467.125625 3514.12109375 -1140.985625 3514.12109375 -1835.265625 3514.12109375 C-1835.265625 3580.12109375 -1835.265625 3646.12109375 -1835.265625 3714.12109375 C-1097.385625 3714.12109375 -359.505625 3714.12109375 400.734375 3714.12109375 C400.734375 2508.63109375 400.734375 1303.14109375 400.734375 61.12109375 C366.084375 61.12109375 331.434375 61.12109375 295.734375 61.12109375 C293.27525179 74.9251629 293.27525179 74.9251629 291.18186951 88.77095032 C290.98508135 90.18598146 290.98508135 90.18598146 290.78431767 91.62959909 C290.35378432 94.73093093 289.92772574 97.83285925 289.50170898 100.93481445 C289.18849392 103.19788412 288.8749979 105.46091491 288.56124687 107.72391033 C287.70949236 113.87319931 286.8616583 120.02302313 286.01451516 126.17294884 C285.20014012 132.08035445 284.38275495 137.98734331 283.56542974 143.8943413 C281.91069148 155.85423496 280.25884003 167.81452555 278.60870361 179.77505493 C276.97946798 191.58399889 275.34886872 203.39275329 273.7164917 215.20126343 C273.56386534 216.30535658 273.56386534 216.30535658 273.40815562 217.43175464 C272.89308132 221.15771691 272.37797941 224.88367537 271.86286354 228.6096319 C270.82996337 236.08089614 269.79724295 243.55218522 268.7645874 251.02348328 C268.61122526 252.13306081 268.61122526 252.13306081 268.4547649 253.26505405 C266.18732548 269.67035487 263.9218093 286.07592116 261.65645885 302.48151053 C257.55489556 332.18483841 253.44910481 361.88757973 249.33984375 391.58984375 C249.05871448 393.62194742 248.77758654 395.65405128 248.49645996 397.68615532 C247.40711355 405.56040316 246.31775919 413.43464991 245.22835922 421.30889034 C242.60515334 440.26982709 239.98340546 459.23096537 237.36178589 478.19212151 C231.70273958 519.12176068 226.04110707 560.05104166 220.37772131 600.9800806 C220.0472293 603.36853326 219.71673924 605.75698618 219.38624954 608.14543915 C215.83587065 633.80402472 212.28518078 659.46256725 208.734375 685.12109375 C208.59776081 686.10828368 208.46114662 687.09547361 208.32039261 688.11257839 C203.47933451 723.09459935 198.63813365 758.07660055 193.796875 793.05859375 C193.63374974 794.23730545 193.47062449 795.41601715 193.30255604 796.63044739 C190.80849165 814.65207142 188.31441103 832.6736932 185.8203125 850.6953125 C185.65393673 851.89749467 185.48756097 853.09967685 185.31614351 854.33828878 C180.96053184 885.81063001 176.60477262 917.28295082 172.24885523 948.75524974 C168.80645958 973.62718821 165.36412808 998.49913555 161.921875 1023.37109375 C161.76082559 1024.53475307 161.59977617 1025.69841238 161.43384647 1026.8973341 C153.65298472 1083.11787162 145.87240159 1139.33844774 138.098526 1195.55995178 C137.54428694 1199.56820761 136.99004099 1203.57646248 136.43579102 1207.5847168 C136.23160244 1209.06139924 136.23160244 1209.06139924 136.02328885 1210.56791365 C134.14561981 1224.14678603 132.26630606 1237.72542981 130.38577139 1251.30390561 C129.21383598 1259.76635374 128.04239374 1268.22887014 126.87109375 1276.69140625 C126.7438469 1277.61068051 126.61660005 1278.52995477 126.48549724 1279.47708583 C122.8368768 1305.83745652 119.21333537 1332.20116389 115.60998183 1358.56775934 C114.71035694 1365.14929307 113.808932 1371.73057826 112.90623474 1378.31169128 C112.78097032 1379.22494657 112.65570591 1380.13820186 112.5266456 1381.07913154 C111.9032454 1385.62359672 111.27960162 1390.1680284 110.65577984 1394.71243572 C109.35020021 1404.22612925 108.05074849 1413.74061801 106.75986141 1423.25631642 C105.89267799 1429.64502717 105.01827197 1436.03272403 104.13843399 1442.4197042 C103.63788132 1446.05516876 103.14034998 1449.6909677 102.65209389 1453.32810593 C99.40581446 1477.48497056 95.68775607 1501.82262909 88.109375 1525.05859375 C87.89082855 1525.74378082 87.6722821 1526.4289679 87.44711304 1527.13491821 C82.41705759 1542.88313251 76.53553546 1558.32809694 70.73687744 1573.80505371 C49.18156814 1631.36794823 31.73527459 1690.3757911 13.734375 1749.12109375 C8.55406646 1732.42253718 8.18605855 1714.64599221 7.67417908 1697.30604553 C7.59738217 1694.99444255 7.51959223 1692.68287238 7.44089884 1690.37133318 C7.23402765 1684.20969548 7.04126291 1678.04769463 6.85160145 1671.8855063 C6.65854167 1665.68590997 6.45265705 1659.48674029 6.24841499 1653.2875042 C5.78530624 1639.13815081 5.34303019 1624.98818425 4.90462047 1610.83805017 C4.665803 1603.13197914 4.42485471 1595.42597498 4.18390543 1587.71997036 C3.7351493 1573.36607003 3.28799831 1559.01212013 2.84179688 1544.65814018 C2.39296391 1530.21966522 1.94337732 1515.78121402 1.4928894 1501.3427906 C1.46431594 1500.42697529 1.43574247 1499.51115997 1.40630315 1498.56759268 C1.2899624 1494.83880203 1.17361648 1491.11001154 1.05726392 1487.38122127 C-0.01726551 1452.94535618 -1.09009886 1418.50943846 -2.16183472 1384.07348633 C-3.1915964 1350.98622253 -4.22206944 1317.89898101 -5.25344849 1284.81176758 C-5.31839447 1282.72823181 -5.38334032 1280.64469603 -5.44828603 1278.56116025 C-5.6762363 1271.2482585 -5.90418735 1263.93535677 -6.13214198 1256.62245516 C-9.38944559 1152.12641699 -12.64238335 1047.63024305 -27.85372925 558.03317261 C-27.88875618 556.90400374 -27.88875618 556.90400374 -27.92449073 555.75202338 C-28.43460467 539.30731301 -28.94464415 522.86260032 -29.45455063 506.41788351 C-29.6588643 499.82871383 -29.86319032 493.23954454 -30.06752014 486.65037537 C-30.08983995 485.93060258 -30.11215975 485.21082979 -30.13515591 484.46924571 C-30.74965961 464.6528101 -31.36484982 444.83639595 -31.98082999 425.02000618 C-32.36568573 412.63894254 -32.75035262 400.25787303 -33.13496548 387.87680184 C-33.19863125 385.82741262 -33.26230393 383.77802361 -33.32597806 381.72863464 C-34.45244174 345.4715499 -35.57114997 309.21423554 -36.68090647 272.95663548 C-36.77648139 269.83409174 -36.87205886 266.71154809 -36.96763897 263.58900452 C-37.00313361 262.42937531 -37.00313361 262.42937531 -37.03934531 261.24631924 C-37.39277371 249.70055618 -37.74716451 238.154823 -38.1024065 226.6091156 C-38.1254414 225.86041988 -38.1484763 225.11172416 -38.17220923 224.3403407 C-38.40237012 216.85990204 -38.63265509 209.37946722 -38.86310978 201.89903761 C-39.35405293 185.96211925 -39.84266626 170.02513452 -40.32645281 154.08799721 C-40.67242442 142.69263154 -41.02182597 131.29737629 -41.37462868 119.90221965 C-41.56519197 113.74336003 -41.75410875 107.58446067 -41.93882489 101.42542267 C-42.10766038 95.79661471 -42.28085721 90.16795923 -42.45766378 84.53939617 C-42.52105185 82.49593242 -42.58277114 80.45241616 -42.64272862 78.40884888 C-42.72382207 75.6526812 -42.81075603 72.89676091 -42.89927769 70.14082336 C-42.92165039 69.33207252 -42.94402309 68.52332168 -42.96707375 67.69006324 C-42.76756033 64.10580541 -42.76756033 64.10580541 -44.265625 61.12109375 C-46.201908 61.02446402 -48.14176762 60.99922231 -50.08045959 61.00083923 C-51.34395737 60.99946457 -52.60745514 60.9980899 -53.90924072 60.99667358 C-55.32238793 61.0002132 -56.7355349 61.00384801 -58.14868164 61.00756836 C-59.62664284 61.00785022 -61.10460419 61.00769251 -62.58256531 61.00712585 C-66.60718328 61.00683785 -70.63177172 61.01273505 -74.6563828 61.01969981 C-78.85778865 61.02593287 -83.0591951 61.02653711 -87.26060486 61.02772522 C-95.22208757 61.03083868 -103.18355662 61.03905226 -111.1450333 61.04907471 C-120.20655089 61.06023539 -129.26806912 61.06574618 -138.32959187 61.07077014 C-156.974944 61.08123487 -175.62028341 61.09883459 -194.265625 61.12109375 C-194.29793528 61.69572955 -194.33024555 62.27036535 -194.36353493 62.86241436 C-194.70835506 68.9762497 -195.06067842 75.08962323 -195.41690063 81.20280457 C-195.54800395 83.46846678 -195.67734539 85.7342318 -195.80471802 88.00010681 C-197.00183416 109.25762082 -199.13656948 130.33399732 -201.62158203 151.47412109 C-202.2765439 157.12840922 -202.85254661 162.78929066 -203.41796875 168.453125 C-206.06168939 194.63090215 -210.11153497 220.32337327 -215.265625 246.12109375 C-215.43429077 246.97050537 -215.60295654 247.81991699 -215.7767334 248.69506836 C-218.46134916 262.20210244 -221.32727388 275.66719347 -224.265625 289.12109375 C-224.64811401 290.87658539 -224.64811401 290.87658539 -225.03833008 292.6675415 C-234.45756186 335.85030442 -245.15440305 378.36496938 -258.20336914 420.6081543 C-258.47466644 421.49078949 -258.74596375 422.37342468 -259.02548218 423.2828064 C-259.53482994 424.93832062 -260.04760727 426.59278489 -260.56436157 428.2460022 C-261.50429971 431.30631772 -262.265625 433.89989152 -262.265625 437.12109375 C-262.925625 437.12109375 -263.585625 437.12109375 -264.265625 437.12109375 C-264.3788208 436.52316513 -264.4920166 435.92523651 -264.60864258 435.30918884 C-265.84141546 428.95549248 -267.32334249 422.70000017 -268.953125 416.4375 C-269.21154678 415.43704651 -269.46996857 414.43659302 -269.73622131 413.40582275 C-270.57547466 410.16405714 -271.4198466 406.92366276 -272.265625 403.68359375 C-272.55629852 402.56818207 -272.84697205 401.45277039 -273.14645386 400.30355835 C-280.97627894 370.29839771 -289.64268003 340.61726847 -298.83148193 311.003479 C-300.85256034 304.47944597 -302.84368192 297.94660122 -304.82421875 291.41015625 C-305.12359344 290.42243225 -305.42296814 289.43470825 -305.73141479 288.41705322 C-306.93944682 284.43060031 -308.14722959 280.44407227 -309.35412598 276.45727539 C-313.54123554 262.62687391 -313.54123554 262.62687391 -317.94140625 248.86328125 C-318.53949097 247.0392981 -318.53949097 247.0392981 -319.1496582 245.1784668 C-319.84017712 243.09331417 -320.53890398 241.01083585 -321.25073242 238.93286133 C-328.17169979 218.13092788 -331.94542492 196.31390164 -336.0582819 174.82413101 C-336.76038225 171.16276984 -337.46928564 167.50272553 -338.1774292 163.8425293 C-339.51087905 156.94527006 -340.83888659 150.04697615 -342.16460299 143.14822674 C-344.11277336 133.01154578 -346.06865822 122.87635265 -348.02537155 112.74131775 C-348.16972617 111.99360139 -348.3140808 111.24588503 -348.4628098 110.4755106 C-348.75072858 108.98418664 -349.0386629 107.49286569 -349.32661319 106.00154781 C-350.1624629 101.6715649 -350.99647184 97.34123276 -351.82880449 93.01057243 C-352.22107875 90.97020108 -352.61389933 88.92993573 -353.00692749 86.88970947 C-353.48343776 84.4156598 -353.95901645 81.94143043 -354.43344116 79.46697998 C-354.64628754 78.36324036 -354.85913391 77.25950073 -355.07843018 76.12231445 C-355.26052662 75.17491898 -355.44262306 74.2275235 -355.63023758 73.25141907 C-356.16128742 70.63512748 -356.72408019 68.0308475 -357.30533671 65.42544842 C-357.48522834 64.61838221 -357.66511996 63.81131601 -357.85046284 62.97979325 C-357.98746635 62.36642242 -358.12446987 61.75305158 -358.265625 61.12109375 C-435.79527665 60.45202785 -513.32527721 59.83203483 -590.85704041 59.4697113 C-592.00623123 59.46432708 -593.15542205 59.45894285 -594.33943683 59.45339547 C-619.32004112 59.33664677 -644.30067601 59.22861331 -669.28135652 59.1295459 C-681.53352505 59.08090373 -693.7856853 59.03033758 -706.0378418 58.97875977 C-707.25701836 58.97366016 -708.47619492 58.96856056 -709.73231623 58.96330642 C-749.18386917 58.79738692 -788.63323031 58.50465796 -828.08345774 58.14550214 C-868.65542867 57.77680861 -909.22618886 57.53737385 -949.79980661 57.45840914 C-955.54265712 57.44717264 -961.28550353 57.43447285 -967.02834892 57.42088127 C-968.15851967 57.41825177 -969.28869042 57.41562228 -970.45310876 57.4129131 C-988.57891795 57.36698953 -1006.70096131 57.18656878 -1024.82524016 56.95464443 C-1043.08830105 56.72385815 -1061.34766508 56.63762753 -1079.61213029 56.69454003 C-1089.49417427 56.72143117 -1099.36613721 56.68680384 -1109.24614906 56.47208023 C-1154.38167741 55.52721468 -1185.26960402 55.43602064 -1213.04067224 95.81659836 Z " fill="#000000" transform="translate(2868.265625,167.87890625)"/>
<path d="" fill="#000000" transform="translate(0,0)"/>
<path d="" fill="#000000" transform="translate(0,0)"/>
<path d="" fill="#000000" transform="translate(0,0)"/>
<path d="" fill="#000000" transform="translate(0,0)"/>
<path d="" fill="#000000" transform="translate(0,0)"/>
<path d="" fill="#000000" transform="translate(0,0)"/>
<path d="" fill="#000000" transform="translate(0,0)"/>
</svg>
